<svg xmlns="http://www.w3.org/2000/svg" xmlns:xlink="http://www.w3.org/1999/xlink" width="69" height="96" version="1.1" viewBox="0 0 69 96"><title>dooringX图标@1x</title><desc>Created with Sketch.</desc><g id="Page-1" fill="none" fill-rule="evenodd" stroke="none" stroke-width="1"><g id="dooringX图标" transform="translate(34.500000, 48.000000) scale(1, -1) translate(-34.500000, -48.000000)"><polygon id="Rectangle-42-Copy-16" fill="#5271ED" points="0 17.5 27 0 27 16 13 24.5 13.5 72 0 80"/><polygon id="Rectangle-42-Copy-17" fill="#5271ED" points="41 40.5 55 32 55 64 27 80 27 64 41 56"/><polygon id="Rectangle-42-Copy-18" fill="#E6EBFF" points="0 80.05 13.401 72.025 26.803 80.05 54.599 64 68 72.025 26.307 96"/><polygon id="Rectangle-42-Copy-19" fill="#9CB0FF" points="27 0 69 24.449 69 72 55.283 64.015 55.283 32 27 16"/><polygon id="Rectangle-42-Copy-20" fill="#9CB0FF" points="13 24.928 27 33 27 80 13.5 71.928"/><polygon id="Rectangle-42-Copy-21" fill="#E6EBFF" points="13 24.673 27 16 55 32.327 41 41"/></g></g></svg>